<svg xmlns="http://www.w3.org/2000/svg" width="1200" height="620" viewBox="0 0 1200 620">
  <defs>
    <linearGradient id="bg" x1="0" y1="0" x2="0" y2="1">
      <stop offset="0%" stop-color="#0B0715"/>
      <stop offset="100%" stop-color="#070312"/>
    </linearGradient>
    <radialGradient id="glow" cx="50%" cy="0%" r="45%">
      <stop offset="0%" stop-color="#CF9EFF" stop-opacity="0.9"/>
      <stop offset="35%" stop-color="#CF9EFF" stop-opacity="0.35"/>
      <stop offset="70%" stop-color="#CF9EFF" stop-opacity="0"/>
    </radialGradient>
  </defs>
  <rect x="0" y="0" width="1200" height="620" fill="url(#bg)"/>
  <rect x="16" y="16" width="1168" height="588" rx="14" ry="14" fill="#0E0A1B" stroke="#2B1F44" stroke-opacity="0.5"/>
  <rect x="16" y="16" width="1168" height="64" rx="14" ry="14" fill="#141026"/>
  <circle cx="56" cy="48" r="6" fill="#E45E5E"/>
  <circle cx="80" cy="48" r="6" fill="#E3B95A"/>
  <circle cx="104" cy="48" r="6" fill="#58D07A"/>
  <rect x="140" y="36" width="280" height="24" rx="8" fill="#201739"/>

  <!-- top-center glow to echo the laser impact -->
  <ellipse cx="600" cy="8" rx="420" ry="140" fill="url(#glow)"/>

  <!-- left sidebar blocks -->
  <rect x="48" y="104" width="220" height="20" rx="6" fill="#1A1231"/>
  <rect x="48" y="140" width="180" height="16" rx="6" fill="#1A1231" opacity="0.8"/>
  <rect x="48" y="172" width="160" height="16" rx="6" fill="#1A1231" opacity="0.7"/>
  <rect x="48" y="204" width="200" height="16" rx="6" fill="#1A1231" opacity="0.6"/>
  <rect x="48" y="236" width="170" height="16" rx="6" fill="#1A1231" opacity="0.55"/>

  <!-- main content blocks -->
  <rect x="300" y="112" width="520" height="24" rx="8" fill="#201739"/>
  <rect x="300" y="156" width="760" height="12" rx="6" fill="#1B1230"/>
  <rect x="300" y="178" width="640" height="12" rx="6" fill="#1B1230" opacity="0.9"/>
  <rect x="300" y="200" width="700" height="12" rx="6" fill="#1B1230" opacity="0.85"/>
  <rect x="300" y="222" width="520" height="12" rx="6" fill="#1B1230" opacity="0.8"/>
  <rect x="300" y="256" width="740" height="160" rx="10" fill="#120B23" stroke="#2B1F44" stroke-opacity="0.35"/>
  <rect x="300" y="436" width="360" height="140" rx="10" fill="#120B23" stroke="#2B1F44" stroke-opacity="0.35"/>
  <rect x="680" y="436" width="360" height="140" rx="10" fill="#120B23" stroke="#2B1F44" stroke-opacity="0.35"/>

  <!-- subtle noise dots pattern -->
  <g opacity="0.14">
    <circle cx="340" cy="470" r="2" fill="#FFFFFF"/>
    <circle cx="920" cy="520" r="2" fill="#FFFFFF"/>
    <circle cx="540" cy="300" r="2" fill="#FFFFFF"/>
    <circle cx="800" cy="340" r="2" fill="#FFFFFF"/>
  </g>
</svg>
